<svg width="1440" height="702" viewBox="0 0 1440 702" fill="none" xmlns="http://www.w3.org/2000/svg">
<path opacity="0.2" d="M268.875 469.671C156.132 474.386 0 554.471 0 554.471L0.00177002 0H1440L1440 568C1440 568 1327 744.001 1140.5 691.502C954.002 639.003 969.502 537.5 891.74 601.909C813.979 666.318 779.627 558.712 744.002 543.55C708.377 528.388 697.325 616.881 614.856 627.558C468.978 646.445 415.709 463.531 268.875 469.671Z" fill="#3F92FF"/>
<path opacity="0.5" d="M268.873 451.607C156.13 456.14 0 560.124 0 560.124V0H1440V560.124C1440 560.124 1327 715.385 1140.5 664.905C954 614.426 969.5 516.827 891.739 578.758C813.977 640.69 779.625 537.223 744 522.644C708.375 508.066 697.323 593.155 614.854 603.422C468.977 621.582 415.708 445.703 268.873 451.607Z" fill="#3F92FF"/>
<path d="M268.873 442.842C156.13 447.287 0 558 0 558V0H1440V555.5C1440 555.5 1327 701.5 1140.5 652C954 602.5 969.5 506.796 891.739 567.525C813.977 628.255 779.625 526.796 744 512.5C708.375 498.204 697.323 581.642 614.854 591.709C468.977 609.517 415.708 437.052 268.873 442.842Z" fill="#3F92FF"/>
<g opacity="0.2" clip-path="url(#clip0_230_2630)">
<path fill-rule="evenodd" clip-rule="evenodd" d="M314.611 403.466C314.478 404.099 314.42 405.007 314.337 406.331L314.296 407.001L314.288 407.123C314.251 407.739 314.219 408.262 313.984 408.719C313.747 409.18 313.341 409.5 312.869 409.872L312.778 409.944L312.266 410.349C311.257 411.147 310.57 411.692 310.143 412.153C309.725 412.601 309.696 412.82 309.718 412.972C309.741 413.134 309.844 413.35 310.384 413.692C310.935 414.038 311.759 414.405 312.961 414.938L313.571 415.208L313.676 415.254C314.243 415.504 314.715 415.712 315.068 416.093C315.419 416.472 315.596 416.96 315.812 417.553L315.853 417.663L316.086 418.302C316.544 419.56 316.862 420.425 317.174 421.008C317.486 421.59 317.69 421.694 317.826 421.722C317.947 421.747 318.146 421.743 318.608 421.333C319.077 420.918 319.642 420.241 320.469 419.245L320.888 418.741L320.965 418.649C321.347 418.185 321.679 417.785 322.144 417.562C322.609 417.339 323.129 417.332 323.73 417.324C323.77 417.324 323.81 417.323 323.85 417.321L324.506 417.313C325.799 417.293 326.681 417.278 327.299 417.173C327.908 417.07 328.036 416.917 328.092 416.807C328.156 416.684 328.203 416.459 327.945 415.851C327.687 415.243 327.211 414.453 326.52 413.307L326.168 412.725L326.108 412.624C325.781 412.084 325.512 411.64 325.437 411.129C325.362 410.615 325.496 410.117 325.656 409.519L325.686 409.408L325.859 408.763C326.197 407.493 326.429 406.621 326.504 405.976C326.577 405.34 326.473 405.125 326.361 405.005C326.256 404.892 326.068 404.777 325.457 404.822C324.829 404.866 323.975 405.059 322.72 405.344L322.084 405.489C322.045 405.497 322.007 405.506 321.97 405.515C321.385 405.649 320.881 405.765 320.373 405.66C319.869 405.557 319.444 405.254 318.939 404.896L318.841 404.826L318.291 404.438C317.209 403.672 316.465 403.148 315.888 402.854C315.312 402.56 315.111 402.607 315.009 402.657C314.906 402.706 314.743 402.832 314.611 403.466ZM313.144 403.157C313.304 402.391 313.609 401.664 314.361 401.304C315.113 400.944 315.87 401.162 316.569 401.517C317.255 401.867 318.088 402.456 319.106 403.177L319.707 403.602C320.365 404.067 320.521 404.159 320.676 404.191C320.823 404.221 320.987 404.201 321.75 404.027L322.45 403.867C323.625 403.6 324.594 403.379 325.35 403.325C326.135 403.27 326.897 403.376 327.462 403.985C328.021 404.587 328.085 405.357 327.994 406.147C327.905 406.916 327.644 407.894 327.324 409.089L327.136 409.795C326.93 410.563 326.897 410.743 326.921 410.912C326.947 411.085 327.034 411.257 327.453 411.949L327.836 412.584C328.488 413.665 329.019 414.545 329.325 415.264C329.636 415.996 329.803 416.761 329.427 417.493C329.043 418.238 328.318 418.523 327.548 418.652C326.803 418.778 325.806 418.793 324.595 418.811L323.873 418.822C323.082 418.834 322.922 418.853 322.792 418.915C322.662 418.977 322.547 419.091 322.041 419.699L321.581 420.254C320.807 421.186 320.17 421.954 319.604 422.455C319.02 422.973 318.344 423.36 317.524 423.192C316.717 423.026 316.226 422.416 315.851 421.715C315.483 421.027 315.13 420.059 314.698 418.875L314.444 418.177C314.166 417.416 314.087 417.241 313.968 417.113C313.852 416.988 313.691 416.902 312.964 416.579L312.296 416.284C311.166 415.783 310.24 415.372 309.586 414.96C308.911 414.536 308.352 414.003 308.233 413.19C308.114 412.368 308.509 411.708 309.044 411.131C309.56 410.576 310.339 409.96 311.285 409.212L311.336 409.172L311.847 408.768C312.462 408.282 312.58 408.168 312.649 408.032C312.722 407.892 312.748 407.713 312.799 406.909L312.844 406.174C312.921 404.929 312.985 403.911 313.143 403.157" fill="white"/>
</g>
<g opacity="0.6" clip-path="url(#clip1_230_2630)">
<path fill-rule="evenodd" clip-rule="evenodd" d="M347.113 434.204C347.032 434.592 346.996 435.148 346.946 435.959L346.92 436.37L346.916 436.444C346.893 436.822 346.873 437.142 346.729 437.422C346.584 437.704 346.335 437.9 346.046 438.128L345.99 438.173L345.677 438.421C345.059 438.909 344.638 439.243 344.376 439.526C344.12 439.8 344.102 439.934 344.116 440.028C344.13 440.127 344.193 440.259 344.524 440.469C344.861 440.681 345.366 440.905 346.102 441.232L346.476 441.397L346.541 441.426C346.888 441.579 347.177 441.706 347.394 441.94C347.609 442.172 347.717 442.471 347.849 442.834L347.874 442.902L348.017 443.293C348.298 444.064 348.493 444.594 348.683 444.951C348.875 445.307 349 445.371 349.083 445.388C349.157 445.404 349.279 445.401 349.562 445.15C349.85 444.896 350.196 444.481 350.702 443.871L350.959 443.562L351.006 443.505C351.24 443.221 351.443 442.976 351.728 442.84C352.014 442.703 352.332 442.699 352.7 442.694C352.725 442.694 352.749 442.693 352.774 442.692L353.175 442.687C353.968 442.675 354.508 442.666 354.887 442.601C355.26 442.538 355.338 442.445 355.373 442.377C355.412 442.302 355.44 442.164 355.282 441.792C355.124 441.419 354.833 440.935 354.409 440.233L354.194 439.876L354.157 439.814C353.957 439.484 353.792 439.212 353.746 438.899C353.7 438.584 353.782 438.278 353.88 437.912L353.899 437.844L354.004 437.449C354.212 436.671 354.354 436.137 354.399 435.741C354.444 435.352 354.381 435.22 354.312 435.147C354.248 435.078 354.133 435.007 353.758 435.034C353.374 435.061 352.85 435.18 352.081 435.355L351.692 435.443C351.668 435.448 351.645 435.454 351.622 435.459C351.263 435.541 350.955 435.612 350.644 435.548C350.335 435.485 350.074 435.299 349.765 435.08L349.705 435.037L349.368 434.799C348.705 434.33 348.25 434.009 347.896 433.829C347.543 433.649 347.42 433.678 347.357 433.708C347.294 433.738 347.195 433.816 347.113 434.204ZM346.215 434.014C346.313 433.545 346.499 433.1 346.96 432.879C347.421 432.658 347.885 432.792 348.313 433.01C348.733 433.224 349.244 433.585 349.867 434.026L350.236 434.287C350.638 434.572 350.734 434.628 350.829 434.648C350.919 434.667 351.02 434.654 351.487 434.548L351.916 434.45C352.636 434.286 353.229 434.15 353.693 434.117C354.174 434.083 354.64 434.149 354.986 434.522C355.329 434.891 355.369 435.362 355.312 435.846C355.258 436.317 355.098 436.917 354.902 437.649L354.787 438.081C354.661 438.552 354.64 438.662 354.655 438.766C354.671 438.872 354.724 438.977 354.981 439.401L355.215 439.79C355.615 440.452 355.941 440.992 356.128 441.432C356.319 441.88 356.421 442.349 356.191 442.798C355.955 443.254 355.511 443.428 355.04 443.507C354.583 443.585 353.972 443.594 353.23 443.605L352.787 443.612C352.303 443.619 352.205 443.63 352.125 443.668C352.046 443.707 351.975 443.776 351.666 444.149L351.384 444.489C350.909 445.06 350.519 445.53 350.172 445.837C349.815 446.155 349.4 446.392 348.898 446.289C348.404 446.187 348.103 445.813 347.873 445.384C347.648 444.962 347.431 444.37 347.167 443.644L347.011 443.216C346.841 442.75 346.792 442.643 346.719 442.565C346.649 442.488 346.55 442.435 346.104 442.238L345.695 442.057C345.003 441.75 344.435 441.498 344.035 441.246C343.622 440.986 343.279 440.659 343.206 440.161C343.133 439.657 343.375 439.253 343.703 438.9C344.019 438.56 344.496 438.182 345.076 437.724L345.107 437.7L345.42 437.452C345.797 437.154 345.869 437.084 345.912 437.001C345.956 436.915 345.972 436.806 346.003 436.313L346.031 435.863C346.078 435.1 346.117 434.477 346.214 434.015" fill="white"/>
</g>
<g opacity="0.6" clip-path="url(#clip2_230_2630)">
<path fill-rule="evenodd" clip-rule="evenodd" d="M281.113 414.19C281.032 414.578 280.996 415.134 280.946 415.945L280.92 416.356L280.916 416.43C280.893 416.808 280.873 417.128 280.729 417.408C280.584 417.69 280.335 417.886 280.046 418.114L279.99 418.159L279.677 418.407C279.059 418.895 278.638 419.229 278.376 419.512C278.12 419.786 278.102 419.92 278.116 420.014C278.13 420.113 278.193 420.245 278.524 420.455C278.861 420.667 279.366 420.891 280.102 421.218L280.476 421.383L280.541 421.412C280.888 421.565 281.177 421.692 281.394 421.926C281.609 422.158 281.717 422.457 281.849 422.82L281.874 422.888L282.017 423.279C282.298 424.05 282.493 424.58 282.683 424.937C282.875 425.293 283 425.357 283.083 425.374C283.157 425.39 283.279 425.387 283.562 425.136C283.85 424.882 284.196 424.467 284.702 423.857L284.959 423.548L285.006 423.491C285.24 423.207 285.443 422.962 285.728 422.825C286.014 422.689 286.332 422.685 286.7 422.68C286.725 422.68 286.749 422.679 286.774 422.678L287.175 422.673C287.968 422.661 288.508 422.652 288.887 422.587C289.26 422.524 289.338 422.431 289.373 422.363C289.412 422.288 289.44 422.15 289.282 421.778C289.124 421.405 288.833 420.921 288.409 420.219L288.194 419.862L288.157 419.8C287.957 419.47 287.792 419.198 287.746 418.885C287.7 418.57 287.782 418.264 287.88 417.898L287.899 417.83L288.004 417.435C288.212 416.657 288.354 416.123 288.399 415.727C288.444 415.338 288.381 415.206 288.312 415.133C288.248 415.063 288.133 414.993 287.758 415.02C287.374 415.047 286.85 415.166 286.081 415.341L285.692 415.429C285.668 415.434 285.645 415.44 285.622 415.445C285.263 415.527 284.955 415.598 284.644 415.534C284.335 415.471 284.074 415.285 283.765 415.066L283.705 415.023L283.368 414.785C282.705 414.316 282.25 413.995 281.896 413.815C281.543 413.635 281.42 413.664 281.357 413.694C281.294 413.724 281.195 413.802 281.113 414.19ZM280.215 414C280.313 413.531 280.499 413.086 280.96 412.865C281.421 412.644 281.885 412.778 282.313 412.996C282.733 413.21 283.244 413.571 283.867 414.012L284.236 414.273C284.638 414.558 284.734 414.614 284.829 414.634C284.919 414.653 285.02 414.64 285.487 414.534L285.916 414.436C286.636 414.272 287.229 414.136 287.693 414.103C288.174 414.069 288.64 414.135 288.986 414.508C289.329 414.877 289.369 415.348 289.312 415.832C289.258 416.303 289.098 416.903 288.902 417.635L288.787 418.067C288.661 418.538 288.64 418.648 288.655 418.752C288.671 418.857 288.724 418.963 288.981 419.387L289.215 419.776C289.615 420.438 289.941 420.977 290.128 421.418C290.319 421.866 290.421 422.335 290.191 422.783C289.955 423.24 289.511 423.414 289.04 423.493C288.583 423.571 287.972 423.58 287.23 423.591L286.787 423.598C286.303 423.605 286.205 423.616 286.125 423.654C286.046 423.692 285.975 423.762 285.666 424.135L285.384 424.475C284.909 425.046 284.519 425.516 284.172 425.823C283.815 426.141 283.4 426.378 282.898 426.275C282.404 426.173 282.103 425.799 281.873 425.37C281.648 424.948 281.431 424.356 281.167 423.63L281.011 423.202C280.841 422.736 280.792 422.629 280.719 422.551C280.649 422.474 280.55 422.421 280.104 422.224L279.695 422.043C279.003 421.736 278.435 421.484 278.035 421.232C277.622 420.972 277.279 420.645 277.206 420.147C277.133 419.643 277.375 419.239 277.703 418.886C278.019 418.545 278.496 418.168 279.076 417.71L279.107 417.686L279.42 417.438C279.797 417.14 279.869 417.07 279.912 416.987C279.956 416.901 279.972 416.792 280.003 416.299L280.031 415.849C280.078 415.086 280.117 414.463 280.214 414.001" fill="white"/>
</g>
<g opacity="0.6" clip-path="url(#clip3_230_2630)">
<path fill-rule="evenodd" clip-rule="evenodd" d="M410.113 439.19C410.032 439.578 409.996 440.134 409.946 440.945L409.92 441.356L409.916 441.43C409.893 441.808 409.873 442.128 409.729 442.408C409.584 442.69 409.335 442.886 409.046 443.114L408.99 443.159L408.677 443.407C408.059 443.895 407.638 444.229 407.376 444.512C407.12 444.786 407.102 444.92 407.116 445.014C407.13 445.113 407.193 445.245 407.524 445.455C407.861 445.667 408.366 445.891 409.102 446.218L409.476 446.383L409.541 446.412C409.888 446.565 410.177 446.692 410.394 446.926C410.609 447.158 410.717 447.457 410.849 447.82L410.874 447.888L411.017 448.279C411.298 449.05 411.493 449.58 411.683 449.937C411.875 450.293 412 450.357 412.083 450.374C412.157 450.39 412.279 450.387 412.562 450.136C412.85 449.882 413.196 449.467 413.702 448.857L413.959 448.548L414.006 448.491C414.24 448.207 414.443 447.962 414.728 447.825C415.014 447.689 415.332 447.685 415.7 447.68C415.725 447.68 415.749 447.679 415.774 447.678L416.175 447.673C416.968 447.661 417.508 447.652 417.887 447.587C418.26 447.524 418.338 447.431 418.373 447.363C418.412 447.288 418.44 447.15 418.282 446.778C418.124 446.405 417.833 445.921 417.409 445.219L417.194 444.862L417.157 444.8C416.957 444.47 416.792 444.198 416.746 443.885C416.7 443.57 416.782 443.264 416.88 442.898L416.899 442.83L417.004 442.435C417.212 441.657 417.354 441.123 417.399 440.727C417.444 440.338 417.381 440.206 417.312 440.133C417.248 440.063 417.133 439.993 416.758 440.02C416.374 440.047 415.85 440.166 415.081 440.341L414.692 440.429C414.668 440.434 414.645 440.44 414.622 440.445C414.263 440.527 413.955 440.598 413.644 440.534C413.335 440.471 413.074 440.285 412.765 440.066L412.705 440.023L412.368 439.785C411.705 439.316 411.25 438.995 410.896 438.815C410.543 438.635 410.42 438.664 410.357 438.694C410.294 438.724 410.195 438.802 410.113 439.19ZM409.215 439C409.313 438.531 409.499 438.086 409.96 437.865C410.421 437.644 410.885 437.778 411.313 437.996C411.733 438.21 412.244 438.571 412.867 439.012L413.236 439.273C413.638 439.558 413.734 439.614 413.829 439.634C413.919 439.653 414.02 439.64 414.487 439.534L414.916 439.436C415.636 439.272 416.229 439.136 416.693 439.103C417.174 439.069 417.64 439.135 417.986 439.508C418.329 439.877 418.369 440.348 418.312 440.832C418.258 441.303 418.098 441.903 417.902 442.635L417.787 443.067C417.661 443.538 417.64 443.648 417.655 443.752C417.671 443.857 417.724 443.963 417.981 444.387L418.215 444.776C418.615 445.438 418.941 445.977 419.128 446.418C419.319 446.866 419.421 447.335 419.191 447.783C418.955 448.24 418.511 448.414 418.04 448.493C417.583 448.571 416.972 448.58 416.23 448.591L415.787 448.598C415.303 448.605 415.205 448.616 415.125 448.654C415.046 448.692 414.975 448.762 414.666 449.135L414.384 449.475C413.909 450.046 413.519 450.516 413.172 450.823C412.815 451.141 412.4 451.378 411.898 451.275C411.404 451.173 411.103 450.799 410.873 450.37C410.648 449.948 410.431 449.356 410.167 448.63L410.011 448.202C409.841 447.736 409.792 447.629 409.719 447.551C409.649 447.474 409.55 447.421 409.104 447.224L408.695 447.043C408.003 446.736 407.435 446.484 407.035 446.232C406.622 445.972 406.279 445.645 406.206 445.147C406.133 444.643 406.375 444.239 406.703 443.886C407.019 443.545 407.496 443.168 408.076 442.71L408.107 442.686L408.42 442.438C408.797 442.14 408.869 442.07 408.912 441.987C408.956 441.901 408.972 441.792 409.003 441.299L409.031 440.849C409.078 440.086 409.117 439.463 409.214 439.001" fill="white"/>
</g>
<g opacity="0.1" clip-path="url(#clip4_230_2630)">
<path fill-rule="evenodd" clip-rule="evenodd" d="M380.346 427.478C380.284 427.769 380.258 428.187 380.22 428.797L380.201 429.106L380.197 429.161C380.18 429.445 380.165 429.686 380.057 429.896C379.948 430.109 379.761 430.256 379.544 430.427L379.502 430.461L379.266 430.647C378.801 431.014 378.485 431.265 378.288 431.477C378.096 431.684 378.083 431.785 378.093 431.855C378.104 431.929 378.151 432.029 378.4 432.186C378.653 432.346 379.032 432.514 379.586 432.76L379.867 432.884L379.915 432.906C380.176 433.021 380.394 433.117 380.556 433.292C380.718 433.466 380.8 433.691 380.899 433.964L380.918 434.015L381.025 434.309C381.236 434.888 381.383 435.287 381.526 435.555C381.67 435.823 381.763 435.871 381.826 435.884C381.882 435.896 381.974 435.893 382.186 435.705C382.402 435.514 382.663 435.202 383.043 434.743L383.236 434.511L383.271 434.469C383.447 434.255 383.6 434.071 383.814 433.968C384.029 433.866 384.268 433.862 384.545 433.859C384.563 433.859 384.582 433.858 384.6 433.858L384.902 433.853C385.498 433.845 385.904 433.838 386.188 433.789C386.468 433.742 386.528 433.672 386.553 433.621C386.583 433.564 386.604 433.46 386.486 433.181C386.367 432.901 386.148 432.537 385.829 432.009L385.667 431.741L385.64 431.695C385.489 431.446 385.365 431.241 385.331 431.006C385.296 430.77 385.358 430.54 385.432 430.265L385.446 430.214L385.525 429.917C385.681 429.332 385.788 428.93 385.822 428.633C385.856 428.34 385.808 428.242 385.756 428.186C385.708 428.134 385.622 428.081 385.34 428.102C385.051 428.122 384.657 428.211 384.08 428.343L383.787 428.409C383.769 428.413 383.751 428.417 383.734 428.421C383.465 428.483 383.233 428.536 382.999 428.488C382.767 428.441 382.571 428.301 382.339 428.136L382.293 428.104L382.041 427.925C381.542 427.573 381.2 427.331 380.934 427.196C380.668 427.061 380.576 427.082 380.529 427.105C380.482 427.128 380.407 427.186 380.346 427.478ZM379.67 427.335C379.744 426.983 379.884 426.648 380.231 426.482C380.577 426.316 380.925 426.417 381.247 426.58C381.563 426.742 381.947 427.013 382.415 427.344L382.692 427.54C382.995 427.755 383.067 427.797 383.138 427.812C383.206 427.825 383.282 427.816 383.633 427.736L383.955 427.662C384.497 427.539 384.943 427.437 385.291 427.413C385.652 427.387 386.003 427.436 386.263 427.717C386.521 427.994 386.55 428.348 386.508 428.712C386.467 429.066 386.347 429.517 386.2 430.067L386.113 430.392C386.018 430.746 386.003 430.829 386.014 430.906C386.026 430.986 386.066 431.065 386.259 431.384L386.435 431.676C386.736 432.174 386.98 432.579 387.121 432.91C387.264 433.247 387.341 433.6 387.168 433.937C386.991 434.28 386.658 434.411 386.303 434.47C385.96 434.528 385.501 434.535 384.943 434.544L384.61 434.549C384.247 434.554 384.173 434.563 384.113 434.591C384.053 434.62 384 434.672 383.767 434.952L383.555 435.208C383.199 435.637 382.905 435.991 382.645 436.222C382.376 436.46 382.065 436.638 381.687 436.561C381.316 436.484 381.089 436.203 380.917 435.881C380.747 435.564 380.585 435.118 380.386 434.573L380.269 434.252C380.141 433.901 380.104 433.821 380.05 433.762C379.996 433.704 379.922 433.664 379.587 433.516L379.28 433.38C378.759 433.149 378.333 432.96 378.032 432.77C377.721 432.575 377.464 432.33 377.409 431.955C377.354 431.577 377.536 431.273 377.782 431.007C378.02 430.751 378.379 430.468 378.814 430.124L378.838 430.105L379.073 429.919C379.356 429.695 379.411 429.643 379.443 429.58C379.476 429.516 379.488 429.433 379.511 429.063L379.532 428.725C379.568 428.151 379.597 427.683 379.67 427.336" fill="white"/>
</g>
<g opacity="0.6" clip-path="url(#clip5_230_2630)">
<path fill-rule="evenodd" clip-rule="evenodd" d="M383.346 409.9C383.284 410.192 383.258 410.61 383.22 411.22L383.201 411.528L383.197 411.584C383.18 411.868 383.165 412.109 383.057 412.319C382.948 412.532 382.761 412.679 382.544 412.85L382.502 412.884L382.266 413.07C381.801 413.437 381.485 413.688 381.288 413.9C381.096 414.107 381.083 414.208 381.093 414.278C381.104 414.352 381.151 414.452 381.4 414.609C381.653 414.769 382.032 414.937 382.586 415.183L382.867 415.307L382.915 415.328C383.176 415.443 383.394 415.539 383.556 415.715C383.718 415.889 383.8 416.114 383.899 416.387L383.918 416.438L384.025 416.732C384.236 417.311 384.383 417.709 384.526 417.978C384.67 418.246 384.763 418.294 384.826 418.307C384.882 418.318 384.974 418.316 385.186 418.128C385.402 417.936 385.663 417.625 386.043 417.166L386.236 416.934L386.271 416.892C386.447 416.678 386.6 416.494 386.814 416.391C387.029 416.289 387.268 416.285 387.545 416.282C387.563 416.282 387.582 416.281 387.6 416.28L387.902 416.276C388.498 416.267 388.904 416.26 389.188 416.212C389.468 416.165 389.528 416.094 389.553 416.044C389.583 415.987 389.604 415.883 389.486 415.603C389.367 415.323 389.148 414.96 388.829 414.432L388.667 414.164L388.64 414.117C388.489 413.869 388.365 413.664 388.331 413.429C388.296 413.193 388.358 412.963 388.432 412.688L388.446 412.637L388.525 412.34C388.681 411.755 388.788 411.353 388.822 411.056C388.856 410.763 388.808 410.665 388.756 410.609C388.708 410.557 388.622 410.504 388.34 410.525C388.051 410.545 387.657 410.634 387.08 410.765L386.787 410.832C386.769 410.836 386.751 410.84 386.734 410.844C386.465 410.906 386.233 410.959 385.999 410.911C385.767 410.863 385.571 410.724 385.339 410.559L385.293 410.527L385.041 410.348C384.542 409.995 384.2 409.754 383.934 409.619C383.668 409.483 383.576 409.505 383.529 409.528C383.482 409.551 383.407 409.609 383.346 409.9ZM382.67 409.758C382.744 409.405 382.884 409.071 383.231 408.905C383.577 408.739 383.925 408.84 384.247 409.003C384.563 409.164 384.947 409.436 385.415 409.767L385.692 409.963C385.995 410.177 386.067 410.22 386.138 410.234C386.206 410.248 386.282 410.239 386.633 410.159L386.955 410.085C387.497 409.962 387.943 409.86 388.291 409.836C388.652 409.81 389.003 409.859 389.263 410.139C389.521 410.417 389.55 410.771 389.508 411.135C389.467 411.489 389.347 411.94 389.2 412.49L389.113 412.815C389.018 413.168 389.003 413.251 389.014 413.329C389.026 413.409 389.066 413.488 389.259 413.807L389.435 414.099C389.736 414.597 389.98 415.002 390.121 415.333C390.264 415.67 390.341 416.022 390.168 416.36C389.991 416.703 389.658 416.834 389.303 416.893C388.96 416.951 388.501 416.958 387.943 416.966L387.61 416.971C387.247 416.977 387.173 416.985 387.113 417.014C387.053 417.043 387 417.095 386.767 417.375L386.555 417.631C386.199 418.06 385.905 418.413 385.645 418.644C385.376 418.883 385.065 419.061 384.687 418.983C384.316 418.907 384.089 418.626 383.917 418.304C383.747 417.987 383.585 417.541 383.386 416.996L383.269 416.674C383.141 416.324 383.104 416.244 383.05 416.185C382.996 416.127 382.922 416.087 382.587 415.939L382.28 415.803C381.759 415.572 381.333 415.383 381.032 415.193C380.721 414.998 380.464 414.752 380.409 414.378C380.354 413.999 380.536 413.695 380.782 413.43C381.02 413.174 381.379 412.891 381.814 412.546L381.838 412.528L382.073 412.342C382.356 412.118 382.411 412.065 382.443 412.003C382.476 411.939 382.488 411.856 382.511 411.486L382.532 411.147C382.568 410.574 382.597 410.106 382.67 409.758" fill="white"/>
</g>
<g opacity="0.2" clip-path="url(#clip6_230_2630)">
<path fill-rule="evenodd" clip-rule="evenodd" d="M341.113 410.19C341.032 410.578 340.996 411.134 340.946 411.945L340.92 412.356L340.916 412.43C340.893 412.808 340.873 413.128 340.729 413.408C340.584 413.69 340.335 413.886 340.046 414.114L339.99 414.159L339.677 414.407C339.059 414.895 338.638 415.229 338.376 415.512C338.12 415.786 338.102 415.92 338.116 416.014C338.13 416.113 338.193 416.245 338.524 416.455C338.861 416.667 339.366 416.891 340.102 417.218L340.476 417.383L340.541 417.412C340.888 417.565 341.177 417.692 341.394 417.926C341.609 418.158 341.717 418.457 341.849 418.82L341.874 418.888L342.017 419.279C342.298 420.05 342.493 420.58 342.683 420.937C342.875 421.293 343 421.357 343.083 421.374C343.157 421.39 343.279 421.387 343.562 421.136C343.85 420.882 344.196 420.467 344.702 419.857L344.959 419.548L345.006 419.491C345.24 419.207 345.443 418.962 345.728 418.825C346.014 418.689 346.332 418.685 346.7 418.68C346.725 418.68 346.749 418.679 346.774 418.678L347.175 418.673C347.968 418.661 348.508 418.652 348.887 418.587C349.26 418.524 349.338 418.431 349.373 418.363C349.412 418.288 349.44 418.15 349.282 417.778C349.124 417.405 348.833 416.921 348.409 416.219L348.194 415.862L348.157 415.8C347.957 415.47 347.792 415.198 347.746 414.885C347.7 414.57 347.782 414.264 347.88 413.898L347.899 413.83L348.004 413.435C348.212 412.657 348.354 412.123 348.399 411.727C348.444 411.338 348.381 411.206 348.312 411.133C348.248 411.063 348.133 410.993 347.758 411.02C347.374 411.047 346.85 411.166 346.081 411.341L345.692 411.429C345.668 411.434 345.645 411.44 345.622 411.445C345.263 411.527 344.955 411.598 344.644 411.534C344.335 411.471 344.074 411.285 343.765 411.066L343.705 411.023L343.368 410.785C342.705 410.316 342.25 409.995 341.896 409.815C341.543 409.635 341.42 409.664 341.357 409.694C341.294 409.724 341.195 409.802 341.113 410.19ZM340.215 410C340.313 409.531 340.499 409.086 340.96 408.865C341.421 408.644 341.885 408.778 342.313 408.996C342.733 409.21 343.244 409.571 343.867 410.012L344.236 410.273C344.638 410.558 344.734 410.614 344.829 410.634C344.919 410.653 345.02 410.64 345.487 410.534L345.916 410.436C346.636 410.272 347.229 410.136 347.693 410.103C348.174 410.069 348.64 410.135 348.986 410.508C349.329 410.877 349.369 411.348 349.312 411.832C349.258 412.303 349.098 412.903 348.902 413.635L348.787 414.067C348.661 414.538 348.64 414.648 348.655 414.752C348.671 414.857 348.724 414.963 348.981 415.387L349.215 415.776C349.615 416.438 349.941 416.977 350.128 417.418C350.319 417.866 350.421 418.335 350.191 418.783C349.955 419.24 349.511 419.414 349.04 419.493C348.583 419.571 347.972 419.58 347.23 419.591L346.787 419.598C346.303 419.605 346.205 419.616 346.125 419.654C346.046 419.692 345.975 419.762 345.666 420.135L345.384 420.475C344.909 421.046 344.519 421.516 344.172 421.823C343.815 422.141 343.4 422.378 342.898 422.275C342.404 422.173 342.103 421.799 341.873 421.37C341.648 420.948 341.431 420.356 341.167 419.63L341.011 419.202C340.841 418.736 340.792 418.629 340.719 418.551C340.649 418.474 340.55 418.421 340.104 418.224L339.695 418.043C339.003 417.736 338.435 417.484 338.035 417.232C337.622 416.972 337.279 416.645 337.206 416.147C337.133 415.643 337.375 415.239 337.703 414.886C338.019 414.545 338.496 414.168 339.076 413.71L339.107 413.686L339.42 413.438C339.797 413.14 339.869 413.07 339.912 412.987C339.956 412.901 339.972 412.792 340.003 412.299L340.031 411.849C340.078 411.086 340.117 410.463 340.214 410.001" fill="white"/>
</g>
<g opacity="0.2" clip-path="url(#clip7_230_2630)">
<path fill-rule="evenodd" clip-rule="evenodd" d="M392.61 448.878C392.476 449.517 392.418 450.433 392.335 451.767L392.293 452.443L392.285 452.565C392.247 453.187 392.215 453.714 391.978 454.174C391.739 454.64 391.33 454.962 390.855 455.337L390.762 455.41L390.246 455.818C389.229 456.623 388.536 457.172 388.106 457.637C387.684 458.089 387.655 458.309 387.678 458.463C387.701 458.626 387.804 458.844 388.349 459.189C388.904 459.538 389.735 459.907 390.947 460.445L391.562 460.717L391.668 460.763C392.239 461.015 392.715 461.225 393.071 461.609C393.425 461.991 393.604 462.483 393.821 463.082L393.863 463.192L394.097 463.837C394.559 465.105 394.88 465.977 395.194 466.564C395.509 467.151 395.714 467.256 395.852 467.285C395.974 467.31 396.175 467.305 396.64 466.893C397.114 466.474 397.683 465.791 398.516 464.787L398.939 464.279L399.016 464.186C399.402 463.719 399.736 463.315 400.205 463.09C400.674 462.866 401.199 462.858 401.804 462.85C401.845 462.85 401.885 462.85 401.926 462.848L402.586 462.839C403.891 462.819 404.78 462.804 405.403 462.698C406.016 462.594 406.146 462.44 406.202 462.33C406.267 462.205 406.313 461.978 406.054 461.366C405.794 460.752 405.314 459.956 404.617 458.801L404.262 458.214L404.202 458.112C403.872 457.568 403.601 457.12 403.526 456.605C403.45 456.087 403.585 455.584 403.746 454.981L403.777 454.869L403.951 454.219C404.292 452.938 404.525 452.06 404.601 451.409C404.675 450.768 404.57 450.552 404.457 450.43C404.351 450.317 404.162 450.201 403.545 450.246C402.912 450.29 402.051 450.485 400.786 450.773L400.145 450.919C400.105 450.926 400.067 450.936 400.03 450.945C399.44 451.08 398.932 451.196 398.42 451.091C397.912 450.987 397.483 450.682 396.974 450.321L396.875 450.25L396.321 449.859C395.23 449.087 394.48 448.558 393.898 448.262C393.317 447.966 393.115 448.013 393.011 448.063C392.908 448.112 392.744 448.24 392.61 448.878ZM391.131 448.567C391.292 447.795 391.6 447.062 392.358 446.699C393.117 446.336 393.88 446.556 394.584 446.914C395.276 447.267 396.116 447.861 397.142 448.587L397.748 449.015C398.411 449.485 398.569 449.577 398.725 449.61C398.874 449.64 399.039 449.619 399.808 449.444L400.514 449.283C401.699 449.013 402.675 448.791 403.437 448.737C404.229 448.681 404.997 448.788 405.567 449.402C406.13 450.009 406.195 450.785 406.103 451.582C406.013 452.357 405.75 453.344 405.428 454.548L405.238 455.26C405.031 456.034 404.997 456.216 405.021 456.386C405.048 456.56 405.135 456.734 405.558 457.432L405.944 458.072C406.601 459.161 407.137 460.049 407.445 460.774C407.759 461.512 407.927 462.283 407.548 463.021C407.161 463.772 406.43 464.059 405.654 464.189C404.902 464.317 403.897 464.332 402.676 464.35L401.948 464.361C401.151 464.373 400.989 464.392 400.858 464.454C400.727 464.517 400.611 464.632 400.102 465.244L399.638 465.804C398.857 466.745 398.215 467.518 397.644 468.024C397.056 468.546 396.374 468.936 395.547 468.766C394.734 468.599 394.239 467.984 393.861 467.277C393.49 466.583 393.134 465.608 392.698 464.414L392.442 463.71C392.162 462.943 392.082 462.767 391.962 462.638C391.846 462.511 391.683 462.425 390.95 462.1L390.276 461.802C389.137 461.297 388.203 460.883 387.544 460.467C386.864 460.04 386.301 459.502 386.181 458.682C386.06 457.853 386.458 457.188 386.998 456.606C387.518 456.047 388.304 455.426 389.257 454.672L389.309 454.632L389.824 454.224C390.444 453.734 390.563 453.619 390.633 453.483C390.706 453.341 390.733 453.161 390.784 452.35L390.829 451.609C390.907 450.354 390.971 449.328 391.13 448.568" fill="white"/>
</g>
<g opacity="0.2" clip-path="url(#clip8_230_2630)">
<path fill-rule="evenodd" clip-rule="evenodd" d="M439.708 440.54C439.574 441.179 439.516 442.095 439.432 443.429L439.39 444.105L439.383 444.227C439.345 444.849 439.313 445.376 439.076 445.836C438.837 446.301 438.428 446.624 437.952 446.999L437.86 447.072L437.344 447.48C436.327 448.284 435.634 448.834 435.203 449.298C434.782 449.751 434.753 449.971 434.775 450.125C434.799 450.288 434.902 450.506 435.447 450.851C436.002 451.2 436.832 451.569 438.044 452.106L438.66 452.379L438.766 452.425C439.337 452.677 439.813 452.887 440.169 453.271C440.523 453.653 440.702 454.145 440.919 454.743L440.96 454.854L441.195 455.498C441.657 456.766 441.978 457.639 442.292 458.226C442.606 458.813 442.812 458.918 442.95 458.946C443.071 458.972 443.273 458.967 443.738 458.554C444.211 458.136 444.781 457.453 445.614 456.449L446.037 455.941L446.114 455.848C446.499 455.38 446.834 454.977 447.303 454.752C447.772 454.527 448.296 454.52 448.902 454.512C448.942 454.512 448.983 454.511 449.023 454.51L449.684 454.501C450.988 454.481 451.877 454.466 452.5 454.36C453.114 454.256 453.244 454.102 453.3 453.991C453.364 453.867 453.411 453.64 453.152 453.027C452.891 452.414 452.412 451.618 451.715 450.463L451.36 449.876L451.3 449.774C450.97 449.229 450.699 448.782 450.623 448.267C450.547 447.749 450.682 447.246 450.844 446.643L450.874 446.531L451.048 445.881C451.39 444.6 451.623 443.722 451.698 443.071C451.772 442.429 451.668 442.213 451.555 442.092C451.449 441.978 451.259 441.862 450.643 441.907C450.01 441.952 449.149 442.146 447.884 442.434L447.243 442.58C447.203 442.588 447.165 442.597 447.128 442.606C446.537 442.741 446.03 442.858 445.518 442.752C445.01 442.649 444.581 442.343 444.072 441.982L443.973 441.911L443.419 441.52C442.327 440.748 441.578 440.22 440.996 439.924C440.415 439.627 440.213 439.675 440.109 439.725C440.005 439.774 439.842 439.902 439.708 440.54ZM438.229 440.229C438.39 439.457 438.698 438.724 439.456 438.361C440.214 437.997 440.977 438.218 441.682 438.576C442.374 438.929 443.214 439.523 444.24 440.249L444.846 440.677C445.509 441.147 445.666 441.239 445.823 441.272C445.971 441.302 446.137 441.281 446.906 441.106L447.611 440.945C448.796 440.675 449.773 440.452 450.535 440.398C451.327 440.342 452.095 440.45 452.664 441.064C453.228 441.671 453.293 442.447 453.201 443.244C453.111 444.019 452.848 445.005 452.526 446.21L452.336 446.922C452.128 447.696 452.095 447.877 452.119 448.048C452.145 448.222 452.233 448.396 452.655 449.093L453.041 449.734C453.699 450.823 454.235 451.711 454.542 452.435C454.857 453.173 455.025 453.945 454.646 454.683C454.259 455.434 453.528 455.721 452.752 455.851C452 455.978 450.995 455.994 449.774 456.011L449.046 456.022C448.249 456.035 448.087 456.053 447.956 456.116C447.825 456.179 447.709 456.293 447.2 456.906L446.735 457.466C445.955 458.406 445.313 459.18 444.742 459.686C444.154 460.208 443.472 460.598 442.645 460.428C441.832 460.261 441.336 459.646 440.959 458.939C440.587 458.245 440.231 457.27 439.796 456.076L439.54 455.372C439.26 454.605 439.18 454.429 439.06 454.3C438.943 454.173 438.781 454.087 438.048 453.761L437.374 453.464C436.235 452.958 435.301 452.545 434.642 452.129C433.962 451.701 433.398 451.164 433.278 450.344C433.158 449.515 433.556 448.85 434.096 448.268C434.616 447.709 435.401 447.088 436.355 446.334L436.406 446.294L436.922 445.886C437.541 445.396 437.661 445.281 437.731 445.144C437.804 445.003 437.83 444.823 437.881 444.011L437.927 443.271C438.004 442.015 438.069 440.99 438.228 440.229" fill="white"/>
</g>
<g opacity="0.2" clip-path="url(#clip9_230_2630)">
<path fill-rule="evenodd" clip-rule="evenodd" d="M439.513 488.316C439.378 488.955 439.32 489.87 439.237 491.204L439.195 491.88L439.188 492.003C439.15 492.624 439.117 493.152 438.88 493.612C438.641 494.077 438.232 494.399 437.757 494.774L437.665 494.848L437.149 495.255C436.131 496.06 435.439 496.609 435.008 497.074C434.586 497.526 434.558 497.747 434.58 497.9C434.603 498.063 434.706 498.281 435.252 498.626C435.807 498.975 436.637 499.344 437.849 499.882L438.464 500.154L438.571 500.201C439.142 500.452 439.618 500.663 439.974 501.047C440.328 501.428 440.506 501.921 440.723 502.519L440.765 502.63L441 503.274C441.461 504.542 441.783 505.414 442.097 506.002C442.411 506.589 442.617 506.694 442.754 506.722C442.876 506.747 443.077 506.743 443.542 506.33C444.016 505.911 444.585 505.228 445.418 504.225L445.841 503.716L445.919 503.623C446.304 503.156 446.638 502.752 447.108 502.527C447.577 502.303 448.101 502.296 448.706 502.287C448.747 502.288 448.787 502.287 448.828 502.285L449.489 502.276C450.793 502.257 451.682 502.241 452.305 502.135C452.918 502.032 453.048 501.878 453.105 501.767C453.169 501.642 453.216 501.415 452.956 500.803C452.696 500.19 452.217 499.393 451.519 498.238L451.165 497.651L451.105 497.549C450.775 497.005 450.503 496.557 450.428 496.042C450.352 495.524 450.487 495.021 450.649 494.418L450.679 494.307L450.853 493.657C451.194 492.376 451.428 491.497 451.503 490.846C451.577 490.205 451.473 489.989 451.36 489.868C451.254 489.754 451.064 489.638 450.447 489.683C449.815 489.727 448.953 489.922 447.688 490.21L447.047 490.356C447.008 490.364 446.97 490.373 446.932 490.382C446.342 490.517 445.835 490.634 445.322 490.528C444.814 490.424 444.385 490.119 443.876 489.758L443.777 489.687L443.224 489.296C442.132 488.524 441.383 487.995 440.801 487.699C440.219 487.403 440.017 487.45 439.914 487.5C439.81 487.55 439.646 487.677 439.513 488.316ZM438.034 488.004C438.195 487.232 438.502 486.499 439.261 486.136C440.019 485.773 440.782 485.994 441.487 486.352C442.179 486.704 443.018 487.298 444.044 488.024L444.651 488.453C445.314 488.922 445.471 489.015 445.627 489.047C445.776 489.078 445.941 489.057 446.711 488.882L447.416 488.721C448.601 488.451 449.578 488.228 450.34 488.174C451.131 488.118 451.899 488.225 452.469 488.839C453.033 489.447 453.098 490.223 453.005 491.019C452.916 491.794 452.653 492.781 452.331 493.986L452.14 494.697C451.933 495.471 451.899 495.653 451.924 495.823C451.95 495.997 452.038 496.171 452.46 496.869L452.846 497.509C453.504 498.598 454.039 499.486 454.347 500.211C454.661 500.949 454.829 501.72 454.451 502.458C454.063 503.209 453.332 503.497 452.556 503.627C451.805 503.754 450.799 503.769 449.578 503.787L448.85 503.798C448.054 503.81 447.892 503.829 447.761 503.892C447.63 503.954 447.514 504.069 447.004 504.682L446.54 505.241C445.76 506.182 445.117 506.955 444.547 507.461C443.958 507.983 443.277 508.373 442.45 508.203C441.636 508.036 441.141 507.421 440.763 506.715C440.392 506.021 440.036 505.045 439.6 503.851L439.344 503.148C439.064 502.381 438.984 502.204 438.864 502.075C438.748 501.949 438.586 501.862 437.852 501.537L437.179 501.239C436.039 500.734 435.106 500.32 434.446 499.905C433.766 499.477 433.203 498.939 433.083 498.119C432.962 497.291 433.36 496.625 433.9 496.044C434.42 495.484 435.206 494.863 436.16 494.109L436.211 494.069L436.727 493.661C437.346 493.171 437.465 493.056 437.535 492.92C437.609 492.779 437.635 492.598 437.686 491.787L437.732 491.046C437.809 489.791 437.874 488.765 438.033 488.005" fill="white"/>
</g>
<g opacity="0.6" clip-path="url(#clip10_230_2630)">
<path fill-rule="evenodd" clip-rule="evenodd" d="M1092.48 596.62C1092.68 596.28 1092.9 595.766 1093.21 595.016L1093.37 594.636L1093.4 594.568C1093.55 594.218 1093.67 593.922 1093.9 593.705C1094.13 593.486 1094.43 593.382 1094.77 593.261L1094.84 593.238L1095.22 593.106C1095.96 592.847 1096.47 592.669 1096.81 592.488C1097.14 592.313 1097.2 592.192 1097.22 592.099C1097.24 592.001 1097.22 591.855 1096.98 591.549C1096.73 591.238 1096.33 590.86 1095.74 590.311L1095.44 590.032L1095.39 589.984C1095.11 589.726 1094.88 589.51 1094.75 589.219C1094.62 588.929 1094.62 588.611 1094.61 588.224L1094.61 588.153L1094.6 587.736C1094.59 586.916 1094.58 586.351 1094.52 585.952C1094.45 585.552 1094.36 585.451 1094.28 585.407C1094.22 585.368 1094.1 585.331 1093.75 585.475C1093.4 585.621 1092.93 585.9 1092.26 586.31L1091.91 586.518L1091.85 586.556C1091.53 586.748 1091.26 586.913 1090.95 586.949C1090.63 586.984 1090.33 586.884 1089.98 586.768C1089.96 586.76 1089.94 586.752 1089.91 586.745L1089.53 586.619C1088.78 586.37 1088.26 586.202 1087.89 586.139C1087.51 586.076 1087.41 586.139 1087.35 586.191C1087.29 586.25 1087.22 586.371 1087.25 586.774C1087.27 587.178 1087.39 587.731 1087.56 588.533L1087.65 588.941L1087.66 589.011C1087.74 589.389 1087.81 589.7 1087.75 590.011C1087.69 590.324 1087.51 590.585 1087.3 590.899L1087.26 590.957L1087.03 591.296C1086.58 591.963 1086.27 592.421 1086.1 592.78C1085.93 593.133 1085.95 593.278 1085.99 593.371C1086.02 593.457 1086.11 593.561 1086.47 593.658C1086.85 593.759 1087.38 593.818 1088.16 593.905L1088.56 593.949C1088.58 593.952 1088.61 593.954 1088.63 593.957C1089 593.997 1089.31 594.031 1089.58 594.193C1089.85 594.354 1090.04 594.615 1090.26 594.923L1090.3 594.984L1090.54 595.318C1091.02 595.979 1091.34 596.432 1091.62 596.717C1091.89 597.003 1092.02 597.016 1092.09 597.008C1092.16 597 1092.28 596.96 1092.48 596.62ZM1093.27 597.093C1093.02 597.504 1092.7 597.864 1092.19 597.921C1091.68 597.979 1091.29 597.7 1090.95 597.355C1090.63 597.014 1090.26 596.506 1089.82 595.885L1089.56 595.518C1089.27 595.117 1089.2 595.032 1089.11 594.983C1089.03 594.936 1088.94 594.915 1088.46 594.862L1088.02 594.814C1087.29 594.733 1086.68 594.667 1086.23 594.546C1085.77 594.42 1085.35 594.206 1085.14 593.74C1084.94 593.279 1085.06 592.821 1085.27 592.382C1085.48 591.955 1085.82 591.441 1086.25 590.813L1086.5 590.442C1086.77 590.039 1086.83 589.941 1086.85 589.839C1086.87 589.734 1086.85 589.616 1086.75 589.132L1086.65 588.687C1086.49 587.931 1086.36 587.315 1086.33 586.837C1086.3 586.351 1086.35 585.875 1086.72 585.526C1087.09 585.172 1087.57 585.153 1088.04 585.233C1088.5 585.309 1089.08 585.501 1089.78 585.734L1090.2 585.872C1090.66 586.024 1090.76 586.045 1090.84 586.035C1090.93 586.026 1091.02 585.983 1091.44 585.732L1091.81 585.503C1092.45 585.119 1092.97 584.803 1093.4 584.626C1093.84 584.443 1094.31 584.355 1094.75 584.617C1095.19 584.875 1095.35 585.327 1095.42 585.808C1095.5 586.28 1095.51 586.911 1095.52 587.683L1095.53 588.138C1095.54 588.634 1095.55 588.751 1095.59 588.849C1095.63 588.945 1095.71 589.027 1096.06 589.36L1096.39 589.665C1096.95 590.182 1097.4 590.605 1097.69 590.975C1098 591.356 1098.22 591.777 1098.12 592.271C1098.03 592.771 1097.67 593.074 1097.24 593.3C1096.83 593.518 1096.25 593.718 1095.56 593.961L1095.52 593.974L1095.14 594.105C1094.69 594.263 1094.6 594.306 1094.53 594.37C1094.46 594.437 1094.41 594.535 1094.22 594.991L1094.05 595.407C1093.75 596.112 1093.51 596.688 1093.27 597.093" fill="white"/>
</g>
<g opacity="0.6" clip-path="url(#clip11_230_2630)">
<path fill-rule="evenodd" clip-rule="evenodd" d="M1148.28 637.152C1148.48 636.812 1148.7 636.298 1149.01 635.548L1149.17 635.168L1149.2 635.1C1149.35 634.75 1149.47 634.454 1149.7 634.237C1149.93 634.017 1150.23 633.914 1150.57 633.793L1150.64 633.769L1151.02 633.638C1151.76 633.379 1152.27 633.201 1152.61 633.02C1152.94 632.844 1153 632.723 1153.02 632.631C1153.04 632.532 1153.02 632.387 1152.78 632.08C1152.53 631.77 1152.13 631.392 1151.54 630.842L1151.24 630.564L1151.19 630.516C1150.91 630.257 1150.68 630.042 1150.55 629.751C1150.42 629.461 1150.42 629.143 1150.41 628.756L1150.41 628.684L1150.4 628.268C1150.39 627.448 1150.38 626.883 1150.32 626.483C1150.25 626.084 1150.16 625.982 1150.08 625.939C1150.02 625.9 1149.9 625.863 1149.55 626.007C1149.2 626.153 1148.73 626.432 1148.06 626.842L1147.71 627.05L1147.65 627.088C1147.34 627.28 1147.06 627.445 1146.75 627.48C1146.43 627.516 1146.13 627.416 1145.78 627.3C1145.76 627.292 1145.74 627.284 1145.71 627.277L1145.33 627.151C1144.58 626.902 1144.07 626.734 1143.69 626.671C1143.31 626.608 1143.21 626.671 1143.15 626.723C1143.09 626.782 1143.02 626.903 1143.05 627.306C1143.07 627.71 1143.19 628.263 1143.36 629.065L1143.45 629.472L1143.46 629.543C1143.54 629.921 1143.61 630.232 1143.55 630.543C1143.49 630.855 1143.31 631.117 1143.1 631.431L1143.06 631.489L1142.83 631.828C1142.38 632.495 1142.07 632.953 1141.9 633.312C1141.73 633.665 1141.75 633.81 1141.79 633.902C1141.83 633.989 1141.91 634.093 1142.27 634.19C1142.65 634.29 1143.18 634.35 1143.96 634.437L1144.36 634.48C1144.38 634.484 1144.41 634.486 1144.43 634.488C1144.8 634.528 1145.11 634.562 1145.38 634.725C1145.66 634.886 1145.84 635.146 1146.06 635.455L1146.1 635.515L1146.34 635.85C1146.82 636.511 1147.14 636.963 1147.42 637.249C1147.69 637.535 1147.82 637.548 1147.89 637.54C1147.96 637.532 1148.08 637.492 1148.28 637.152ZM1149.07 637.625C1148.82 638.036 1148.5 638.396 1147.99 638.453C1147.48 638.511 1147.09 638.232 1146.76 637.886C1146.43 637.546 1146.06 637.038 1145.62 636.417L1145.36 636.05C1145.07 635.649 1145 635.564 1144.91 635.514C1144.84 635.467 1144.74 635.446 1144.26 635.394L1143.82 635.346C1143.09 635.265 1142.48 635.198 1142.04 635.078C1141.57 634.952 1141.15 634.738 1140.95 634.272C1140.74 633.811 1140.86 633.352 1141.07 632.914C1141.28 632.486 1141.62 631.972 1142.05 631.345L1142.3 630.974C1142.57 630.571 1142.63 630.473 1142.65 630.37C1142.67 630.265 1142.65 630.148 1142.55 629.663L1142.46 629.219C1142.29 628.463 1142.16 627.846 1142.13 627.369C1142.1 626.883 1142.15 626.406 1142.52 626.058C1142.89 625.704 1143.37 625.685 1143.84 625.764C1144.3 625.841 1144.88 626.032 1145.58 626.265L1146 626.404C1146.46 626.555 1146.56 626.577 1146.65 626.567C1146.73 626.557 1146.82 626.514 1147.24 626.264L1147.61 626.035C1148.25 625.651 1148.77 625.334 1149.2 625.158C1149.64 624.975 1150.11 624.887 1150.55 625.149C1150.99 625.407 1151.15 625.858 1151.22 626.339C1151.3 626.812 1151.31 627.442 1151.32 628.215L1151.33 628.67C1151.34 629.166 1151.35 629.283 1151.39 629.381C1151.43 629.477 1151.51 629.559 1151.87 629.891L1152.19 630.197C1152.75 630.714 1153.2 631.137 1153.5 631.507C1153.8 631.888 1154.02 632.308 1153.92 632.803C1153.83 633.303 1153.47 633.606 1153.04 633.832C1152.63 634.05 1152.06 634.25 1151.36 634.493L1151.32 634.506L1150.94 634.637C1150.49 634.795 1150.4 634.838 1150.33 634.902C1150.26 634.968 1150.21 635.067 1150.02 635.522L1149.85 635.938C1149.55 636.644 1149.31 637.22 1149.07 637.625" fill="white"/>
</g>
<g opacity="0.6" clip-path="url(#clip12_230_2630)">
<path fill-rule="evenodd" clip-rule="evenodd" d="M1034.59 571.27C1034.79 570.93 1035.01 570.416 1035.32 569.666L1035.48 569.286L1035.51 569.218C1035.65 568.868 1035.78 568.572 1036.01 568.355C1036.24 568.136 1036.53 568.032 1036.88 567.911L1036.95 567.888L1037.33 567.756C1038.07 567.497 1038.58 567.319 1038.92 567.138C1039.25 566.963 1039.31 566.842 1039.33 566.749C1039.35 566.651 1039.33 566.505 1039.09 566.199C1038.84 565.888 1038.43 565.51 1037.85 564.96L1037.55 564.682L1037.5 564.634C1037.22 564.376 1036.99 564.16 1036.86 563.869C1036.73 563.579 1036.73 563.261 1036.72 562.874L1036.72 562.802L1036.71 562.386C1036.7 561.566 1036.69 561.001 1036.63 560.601C1036.56 560.202 1036.46 560.1 1036.39 560.057C1036.33 560.018 1036.21 559.981 1035.86 560.125C1035.51 560.271 1035.04 560.55 1034.36 560.96L1034.02 561.168L1033.96 561.206C1033.64 561.398 1033.37 561.563 1033.06 561.598C1032.74 561.634 1032.44 561.534 1032.09 561.418C1032.07 561.41 1032.04 561.402 1032.02 561.395L1031.64 561.269C1030.89 561.02 1030.37 560.852 1029.99 560.789C1029.62 560.726 1029.52 560.789 1029.46 560.841C1029.4 560.9 1029.33 561.021 1029.36 561.424C1029.38 561.828 1029.5 562.381 1029.67 563.183L1029.76 563.59L1029.77 563.661C1029.85 564.039 1029.92 564.35 1029.86 564.661C1029.8 564.973 1029.62 565.235 1029.41 565.549L1029.37 565.607L1029.14 565.946C1028.69 566.613 1028.38 567.071 1028.21 567.43C1028.04 567.783 1028.06 567.928 1028.1 568.02C1028.13 568.107 1028.22 568.211 1028.58 568.308C1028.95 568.408 1029.49 568.468 1030.27 568.555L1030.67 568.599C1030.69 568.602 1030.72 568.604 1030.74 568.606C1031.11 568.646 1031.42 568.681 1031.69 568.843C1031.96 569.004 1032.15 569.264 1032.37 569.573L1032.41 569.634L1032.65 569.968C1033.13 570.629 1033.45 571.082 1033.73 571.367C1034 571.653 1034.13 571.666 1034.2 571.658C1034.27 571.65 1034.38 571.61 1034.59 571.27ZM1035.38 571.743C1035.13 572.154 1034.81 572.514 1034.3 572.571C1033.79 572.629 1033.4 572.35 1033.06 572.005C1032.74 571.664 1032.37 571.156 1031.93 570.535L1031.67 570.168C1031.38 569.767 1031.31 569.682 1031.22 569.633C1031.14 569.585 1031.04 569.565 1030.57 569.512L1030.13 569.464C1029.4 569.383 1028.79 569.316 1028.34 569.196C1027.88 569.07 1027.46 568.856 1027.25 568.39C1027.05 567.929 1027.17 567.471 1027.38 567.032C1027.59 566.605 1027.93 566.09 1028.36 565.463L1028.61 565.092C1028.88 564.689 1028.94 564.591 1028.96 564.489C1028.98 564.383 1028.96 564.266 1028.86 563.782L1028.76 563.337C1028.6 562.581 1028.47 561.965 1028.44 561.487C1028.41 561.001 1028.46 560.525 1028.83 560.176C1029.2 559.822 1029.68 559.803 1030.15 559.883C1030.6 559.959 1031.18 560.151 1031.89 560.383L1032.31 560.522C1032.77 560.674 1032.87 560.695 1032.95 560.685C1033.04 560.675 1033.13 560.633 1033.55 560.382L1033.92 560.153C1034.56 559.769 1035.08 559.452 1035.51 559.276C1035.95 559.093 1036.42 559.005 1036.86 559.267C1037.29 559.525 1037.46 559.976 1037.53 560.457C1037.61 560.93 1037.62 561.561 1037.63 562.333L1037.64 562.788C1037.65 563.284 1037.66 563.401 1037.7 563.499C1037.74 563.595 1037.82 563.677 1038.17 564.01L1038.5 564.315C1039.05 564.832 1039.51 565.255 1039.8 565.625C1040.11 566.006 1040.33 566.426 1040.23 566.921C1040.14 567.421 1039.77 567.724 1039.35 567.95C1038.94 568.168 1038.36 568.368 1037.67 568.611L1037.63 568.624L1037.25 568.755C1036.8 568.913 1036.71 568.956 1036.64 569.02C1036.57 569.087 1036.52 569.185 1036.33 569.641L1036.15 570.057C1035.86 570.762 1035.62 571.338 1035.38 571.743" fill="white"/>
</g>
<g opacity="0.1" clip-path="url(#clip13_230_2630)">
<path fill-rule="evenodd" clip-rule="evenodd" d="M1058.88 592.087C1059.03 591.832 1059.19 591.446 1059.43 590.882L1059.55 590.597L1059.57 590.545C1059.68 590.283 1059.77 590.06 1059.94 589.897C1060.11 589.732 1060.34 589.654 1060.6 589.563L1060.65 589.545L1060.94 589.447C1061.49 589.252 1061.88 589.118 1062.13 588.982C1062.38 588.85 1062.43 588.759 1062.44 588.69C1062.45 588.616 1062.44 588.506 1062.26 588.276C1062.07 588.042 1061.77 587.759 1061.33 587.345L1061.1 587.136L1061.06 587.1C1060.85 586.906 1060.68 586.744 1060.58 586.525C1060.49 586.307 1060.48 586.068 1060.48 585.778L1060.48 585.724L1060.47 585.41C1060.46 584.794 1060.46 584.37 1060.41 584.069C1060.36 583.769 1060.29 583.693 1060.23 583.66C1060.18 583.631 1060.1 583.603 1059.83 583.711C1059.57 583.821 1059.22 584.031 1058.71 584.339L1058.45 584.495L1058.4 584.524C1058.17 584.668 1057.96 584.792 1057.73 584.819C1057.49 584.845 1057.26 584.77 1057 584.683C1056.98 584.677 1056.96 584.671 1056.95 584.666L1056.66 584.571C1056.09 584.384 1055.71 584.258 1055.42 584.21C1055.14 584.163 1055.07 584.21 1055.02 584.249C1054.98 584.294 1054.92 584.385 1054.94 584.688C1054.96 584.991 1055.05 585.407 1055.18 586.009L1055.25 586.316L1055.26 586.369C1055.32 586.653 1055.37 586.887 1055.32 587.12C1055.28 587.355 1055.14 587.552 1054.98 587.788L1054.95 587.832L1054.78 588.086C1054.44 588.588 1054.21 588.932 1054.08 589.202C1053.95 589.467 1053.97 589.576 1054 589.645C1054.03 589.71 1054.09 589.789 1054.36 589.862C1054.64 589.937 1055.04 589.982 1055.63 590.047L1055.93 590.08C1055.95 590.082 1055.97 590.084 1055.98 590.086C1056.26 590.116 1056.5 590.141 1056.7 590.264C1056.9 590.384 1057.04 590.58 1057.21 590.812L1057.24 590.858L1057.42 591.109C1057.78 591.606 1058.02 591.946 1058.23 592.161C1058.44 592.376 1058.53 592.385 1058.58 592.379C1058.63 592.374 1058.72 592.343 1058.88 592.087ZM1059.47 592.443C1059.28 592.752 1059.04 593.023 1058.66 593.066C1058.28 593.109 1057.98 592.9 1057.73 592.64C1057.49 592.384 1057.21 592.002 1056.88 591.535L1056.68 591.26C1056.46 590.958 1056.41 590.894 1056.35 590.857C1056.29 590.822 1056.21 590.806 1055.86 590.766L1055.53 590.73C1054.98 590.669 1054.52 590.619 1054.18 590.529C1053.83 590.434 1053.52 590.273 1053.36 589.923C1053.21 589.577 1053.3 589.232 1053.46 588.902C1053.61 588.581 1053.87 588.195 1054.19 587.723L1054.38 587.445C1054.59 587.141 1054.63 587.068 1054.64 586.991C1054.66 586.912 1054.65 586.824 1054.57 586.459L1054.5 586.125C1054.38 585.557 1054.28 585.094 1054.26 584.735C1054.23 584.369 1054.27 584.012 1054.55 583.75C1054.83 583.484 1055.18 583.469 1055.54 583.529C1055.88 583.587 1056.32 583.73 1056.85 583.905L1057.16 584.01C1057.51 584.123 1057.58 584.14 1057.65 584.132C1057.71 584.125 1057.78 584.093 1058.09 583.904L1058.38 583.732C1058.85 583.443 1059.25 583.206 1059.57 583.073C1059.9 582.936 1060.25 582.869 1060.58 583.066C1060.91 583.26 1061.03 583.6 1061.09 583.961C1061.15 584.316 1061.15 584.79 1061.16 585.371L1061.17 585.713C1061.17 586.085 1061.18 586.173 1061.22 586.247C1061.25 586.319 1061.3 586.381 1061.57 586.631L1061.82 586.86C1062.23 587.249 1062.57 587.567 1062.8 587.845C1063.03 588.131 1063.19 588.447 1063.12 588.819C1063.05 589.195 1062.77 589.422 1062.45 589.593C1062.15 589.756 1061.71 589.907 1061.19 590.089L1061.16 590.099L1060.88 590.198C1060.54 590.316 1060.47 590.348 1060.42 590.397C1060.37 590.447 1060.33 590.521 1060.18 590.863L1060.05 591.176C1059.83 591.706 1059.65 592.139 1059.47 592.443" fill="white"/>
</g>
<g opacity="0.6" clip-path="url(#clip14_230_2630)">
<path fill-rule="evenodd" clip-rule="evenodd" d="M1050.28 607.712C1050.44 607.456 1050.6 607.07 1050.83 606.507L1050.95 606.221L1050.97 606.17C1051.08 605.907 1051.18 605.684 1051.35 605.521C1051.52 605.356 1051.75 605.278 1052.01 605.188L1052.06 605.17L1052.34 605.071C1052.9 604.876 1053.28 604.743 1053.54 604.607C1053.79 604.475 1053.83 604.384 1053.85 604.314C1053.86 604.24 1053.85 604.131 1053.66 603.9C1053.48 603.667 1053.17 603.383 1052.73 602.97L1052.51 602.76L1052.47 602.724C1052.26 602.53 1052.08 602.368 1051.99 602.149C1051.89 601.932 1051.89 601.693 1051.89 601.402L1051.88 601.348L1051.88 601.035C1051.87 600.419 1051.86 599.994 1051.81 599.694C1051.77 599.393 1051.69 599.317 1051.64 599.284C1051.59 599.255 1051.5 599.227 1051.24 599.336C1050.97 599.446 1050.62 599.655 1050.11 599.963L1049.86 600.12L1049.81 600.148C1049.57 600.292 1049.37 600.416 1049.13 600.443C1048.9 600.47 1048.67 600.394 1048.41 600.307C1048.39 600.301 1048.37 600.295 1048.35 600.29L1048.07 600.195C1047.5 600.008 1047.12 599.882 1046.83 599.835C1046.55 599.788 1046.47 599.834 1046.43 599.874C1046.38 599.918 1046.33 600.009 1046.35 600.312C1046.37 600.616 1046.46 601.031 1046.59 601.634L1046.65 601.94L1046.66 601.993C1046.72 602.277 1046.77 602.511 1046.73 602.745C1046.68 602.98 1046.55 603.176 1046.39 603.412L1046.36 603.456L1046.19 603.71C1045.85 604.212 1045.62 604.556 1045.49 604.826C1045.36 605.092 1045.37 605.2 1045.4 605.27C1045.43 605.335 1045.5 605.413 1045.77 605.486C1046.05 605.561 1046.45 605.606 1047.04 605.671L1047.34 605.704C1047.36 605.707 1047.37 605.708 1047.39 605.71C1047.67 605.74 1047.9 605.766 1048.11 605.888C1048.31 606.009 1048.45 606.205 1048.62 606.437L1048.65 606.482L1048.83 606.734C1049.18 607.23 1049.43 607.57 1049.63 607.785C1049.84 608 1049.94 608.01 1049.99 608.004C1050.04 607.998 1050.13 607.967 1050.28 607.712ZM1050.87 608.068C1050.69 608.377 1050.45 608.647 1050.07 608.69C1049.68 608.733 1049.39 608.524 1049.14 608.264C1048.89 608.008 1048.62 607.626 1048.28 607.16L1048.09 606.884C1047.87 606.582 1047.82 606.519 1047.75 606.481C1047.69 606.446 1047.62 606.43 1047.26 606.391L1046.93 606.355C1046.38 606.294 1045.93 606.244 1045.59 606.153C1045.24 606.059 1044.92 605.898 1044.77 605.548C1044.62 605.201 1044.71 604.856 1044.87 604.527C1045.02 604.206 1045.28 603.819 1045.6 603.347L1045.79 603.069C1045.99 602.766 1046.04 602.692 1046.05 602.615C1046.07 602.536 1046.05 602.448 1045.98 602.084L1045.9 601.75C1045.78 601.182 1045.69 600.718 1045.66 600.359C1045.64 599.994 1045.68 599.636 1045.95 599.374C1046.23 599.108 1046.59 599.093 1046.95 599.153C1047.29 599.211 1047.72 599.355 1048.25 599.53L1048.57 599.634C1048.92 599.748 1048.99 599.764 1049.05 599.757C1049.12 599.749 1049.19 599.717 1049.5 599.529L1049.78 599.357C1050.26 599.068 1050.65 598.83 1050.98 598.697C1051.31 598.56 1051.66 598.494 1051.99 598.691C1052.32 598.885 1052.44 599.224 1052.5 599.585C1052.55 599.94 1052.56 600.415 1052.57 600.995L1052.57 601.337C1052.58 601.71 1052.59 601.798 1052.62 601.872C1052.65 601.944 1052.71 602.005 1052.98 602.255L1053.22 602.485C1053.64 602.873 1053.98 603.191 1054.2 603.469C1054.43 603.756 1054.6 604.072 1054.52 604.444C1054.45 604.819 1054.18 605.047 1053.86 605.217C1053.55 605.381 1053.12 605.531 1052.6 605.714L1052.57 605.723L1052.28 605.822C1051.94 605.941 1051.88 605.973 1051.83 606.021C1051.77 606.071 1051.73 606.145 1051.59 606.487L1051.46 606.8C1051.24 607.33 1051.06 607.763 1050.87 608.067" fill="white"/>
</g>
<g opacity="0.2" clip-path="url(#clip15_230_2630)">
<path fill-rule="evenodd" clip-rule="evenodd" d="M1090.28 621.274C1090.48 620.934 1090.7 620.42 1091.01 619.671L1091.17 619.291L1091.2 619.222C1091.35 618.873 1091.47 618.577 1091.7 618.36C1091.93 618.14 1092.23 618.037 1092.57 617.916L1092.64 617.892L1093.02 617.761C1093.76 617.501 1094.27 617.324 1094.61 617.143C1094.94 616.967 1095 616.846 1095.02 616.754C1095.04 616.655 1095.02 616.51 1094.78 616.203C1094.53 615.892 1094.13 615.515 1093.54 614.965L1093.24 614.686L1093.19 614.638C1092.91 614.38 1092.68 614.165 1092.55 613.873C1092.42 613.584 1092.42 613.265 1092.41 612.879L1092.41 612.807L1092.4 612.39C1092.39 611.57 1092.38 611.006 1092.32 610.606C1092.25 610.206 1092.16 610.105 1092.08 610.062C1092.02 610.023 1091.9 609.985 1091.55 610.13C1091.2 610.276 1090.73 610.555 1090.06 610.965L1089.71 611.173L1089.65 611.211C1089.34 611.402 1089.06 611.567 1088.75 611.603C1088.43 611.639 1088.13 611.538 1087.78 611.422C1087.76 611.414 1087.74 611.407 1087.71 611.4L1087.33 611.273C1086.58 611.025 1086.07 610.857 1085.69 610.794C1085.31 610.731 1085.21 610.793 1085.15 610.846C1085.09 610.905 1085.02 611.026 1085.05 611.429C1085.07 611.833 1085.19 612.385 1085.36 613.187L1085.45 613.595L1085.46 613.665C1085.54 614.044 1085.61 614.355 1085.55 614.665C1085.49 614.978 1085.31 615.24 1085.1 615.554L1085.06 615.612L1084.83 615.95C1084.38 616.618 1084.07 617.076 1083.9 617.434C1083.73 617.788 1083.75 617.933 1083.79 618.025C1083.83 618.111 1083.91 618.216 1084.27 618.313C1084.65 618.413 1085.18 618.473 1085.96 618.559L1086.36 618.603C1086.38 618.606 1086.41 618.609 1086.43 618.611C1086.8 618.651 1087.11 618.685 1087.38 618.848C1087.66 619.008 1087.84 619.269 1088.06 619.578L1088.1 619.638L1088.34 619.973C1088.82 620.633 1089.14 621.086 1089.42 621.372C1089.69 621.658 1089.82 621.671 1089.89 621.663C1089.96 621.655 1090.08 621.614 1090.28 621.274ZM1091.07 621.747C1090.82 622.159 1090.5 622.518 1089.99 622.576C1089.48 622.633 1089.09 622.355 1088.76 622.009C1088.43 621.669 1088.06 621.161 1087.62 620.539L1087.36 620.173C1087.07 619.771 1087 619.687 1086.91 619.637C1086.84 619.59 1086.74 619.569 1086.26 619.516L1085.82 619.468C1085.09 619.388 1084.48 619.321 1084.04 619.2C1083.57 619.075 1083.15 618.86 1082.95 618.395C1082.74 617.933 1082.86 617.475 1083.07 617.036C1083.28 616.609 1083.62 616.095 1084.05 615.467L1084.3 615.097C1084.57 614.693 1084.63 614.596 1084.65 614.493C1084.67 614.388 1084.65 614.271 1084.55 613.786L1084.46 613.342C1084.29 612.586 1084.16 611.969 1084.13 611.492C1084.1 611.005 1084.15 610.529 1084.52 610.181C1084.89 609.827 1085.37 609.807 1085.84 609.887C1086.3 609.964 1086.88 610.155 1087.58 610.388L1088 610.527C1088.46 610.678 1088.56 610.7 1088.65 610.69C1088.73 610.68 1088.82 610.637 1089.24 610.387L1089.61 610.158C1090.25 609.773 1090.77 609.457 1091.2 609.28C1091.64 609.098 1092.11 609.009 1092.55 609.272C1092.99 609.53 1093.15 609.981 1093.22 610.462C1093.3 610.934 1093.31 611.565 1093.32 612.338L1093.33 612.792C1093.34 613.288 1093.35 613.406 1093.39 613.504C1093.43 613.599 1093.51 613.681 1093.87 614.014L1094.19 614.319C1094.75 614.836 1095.2 615.26 1095.5 615.629C1095.8 616.01 1096.02 616.431 1095.92 616.926C1095.83 617.425 1095.47 617.728 1095.04 617.955C1094.63 618.173 1094.06 618.373 1093.36 618.616L1093.32 618.628L1092.94 618.76C1092.49 618.918 1092.4 618.96 1092.33 619.025C1092.26 619.091 1092.21 619.189 1092.02 619.645L1091.85 620.061C1091.55 620.767 1091.31 621.343 1091.07 621.747" fill="white"/>
</g>
<g opacity="0.2" clip-path="url(#clip16_230_2630)">
<path fill-rule="evenodd" clip-rule="evenodd" d="M1054.3 567.85C1054.64 567.291 1054.99 566.445 1055.51 565.211L1055.77 564.586L1055.81 564.473C1056.05 563.898 1056.26 563.411 1056.63 563.054C1057.01 562.692 1057.5 562.522 1058.07 562.323L1058.19 562.284L1058.81 562.068C1060.03 561.641 1060.87 561.349 1061.42 561.051C1061.97 560.762 1062.07 560.563 1062.1 560.411C1062.13 560.249 1062.11 560.009 1061.7 559.505C1061.29 558.993 1060.63 558.372 1059.66 557.467L1059.17 557.009L1059.08 556.93C1058.63 556.505 1058.25 556.15 1058.03 555.671C1057.83 555.194 1057.82 554.67 1057.81 554.034L1057.81 553.916L1057.8 553.23C1057.77 551.881 1057.76 550.952 1057.65 550.294C1057.55 549.636 1057.39 549.469 1057.27 549.398C1057.16 549.334 1056.97 549.272 1056.39 549.51C1055.81 549.751 1055.05 550.209 1053.93 550.884L1053.37 551.226L1053.26 551.289C1052.74 551.604 1052.3 551.876 1051.78 551.935C1051.26 551.993 1050.77 551.828 1050.19 551.638C1050.15 551.624 1050.11 551.612 1050.07 551.6L1049.45 551.392C1048.21 550.983 1047.36 550.706 1046.74 550.603C1046.13 550.499 1045.95 550.602 1045.86 550.689C1045.76 550.785 1045.64 550.984 1045.69 551.648C1045.73 552.313 1045.93 553.222 1046.21 554.542L1046.35 555.213L1046.37 555.329C1046.51 555.951 1046.62 556.463 1046.52 556.974C1046.42 557.489 1046.13 557.919 1045.78 558.436L1045.71 558.532L1045.33 559.089C1044.59 560.187 1044.08 560.941 1043.8 561.531C1043.52 562.113 1043.55 562.351 1043.61 562.503C1043.68 562.645 1043.82 562.817 1044.42 562.976C1045.03 563.141 1045.91 563.24 1047.2 563.382L1047.85 563.454C1047.89 563.46 1047.93 563.464 1047.97 563.467C1048.57 563.533 1049.09 563.589 1049.54 563.857C1049.98 564.121 1050.29 564.55 1050.65 565.058L1050.72 565.158L1051.11 565.708C1051.89 566.795 1052.43 567.54 1052.88 568.011C1053.33 568.481 1053.54 568.502 1053.65 568.489C1053.77 568.476 1053.96 568.41 1054.3 567.85ZM1055.6 568.629C1055.19 569.306 1054.66 569.898 1053.82 569.992C1052.99 570.087 1052.34 569.628 1051.79 569.059C1051.25 568.499 1050.65 567.663 1049.92 566.641L1049.49 566.037C1049.02 565.377 1048.9 565.238 1048.76 565.156C1048.63 565.078 1048.47 565.044 1047.68 564.957L1046.97 564.878C1045.76 564.745 1044.76 564.636 1044.02 564.437C1043.26 564.231 1042.57 563.878 1042.23 563.111C1041.9 562.352 1042.09 561.598 1042.44 560.876C1042.78 560.173 1043.35 559.327 1044.05 558.294L1044.46 557.684C1044.91 557.02 1045 556.86 1045.03 556.691C1045.07 556.518 1045.04 556.325 1044.87 555.527L1044.71 554.796C1044.45 553.552 1044.23 552.537 1044.18 551.752C1044.13 550.951 1044.22 550.167 1044.82 549.594C1045.43 549.012 1046.22 548.98 1046.99 549.111C1047.74 549.237 1048.7 549.552 1049.86 549.935L1050.55 550.163C1051.31 550.412 1051.47 550.448 1051.61 550.432C1051.75 550.416 1051.9 550.345 1052.58 549.933L1053.21 549.556C1054.25 548.924 1055.11 548.403 1055.82 548.112C1056.54 547.812 1057.31 547.667 1058.04 548.098C1058.75 548.522 1059.02 549.265 1059.15 550.057C1059.27 550.834 1059.29 551.872 1059.31 553.143L1059.32 553.892C1059.33 554.708 1059.35 554.901 1059.42 555.062C1059.49 555.22 1059.61 555.355 1060.2 555.903L1060.74 556.405C1061.65 557.255 1062.4 557.952 1062.88 558.561C1063.39 559.188 1063.74 559.88 1063.59 560.694C1063.43 561.516 1062.83 562.015 1062.13 562.387C1061.46 562.746 1060.51 563.075 1059.37 563.475L1059.3 563.496L1058.68 563.712C1057.94 563.972 1057.79 564.042 1057.68 564.148C1057.56 564.257 1057.48 564.419 1057.16 565.169L1056.88 565.854C1056.39 567.015 1056 567.963 1055.6 568.629" fill="white"/>
</g>
<g opacity="0.2" clip-path="url(#clip17_230_2630)">
<path fill-rule="evenodd" clip-rule="evenodd" d="M1007.07 560.299C1007.41 559.739 1007.76 558.893 1008.28 557.66L1008.54 557.035L1008.58 556.922C1008.82 556.347 1009.03 555.859 1009.4 555.502C1009.78 555.141 1010.27 554.971 1010.84 554.772L1010.96 554.733L1011.58 554.517C1012.8 554.09 1013.64 553.797 1014.19 553.5C1014.74 553.211 1014.84 553.012 1014.87 552.859C1014.9 552.697 1014.88 552.458 1014.47 551.953C1014.06 551.442 1013.4 550.821 1012.43 549.916L1011.94 549.457L1011.85 549.379C1011.4 548.953 1011.01 548.599 1010.8 548.119C1010.6 547.643 1010.59 547.119 1010.58 546.483L1010.58 546.365L1010.56 545.679C1010.54 544.33 1010.53 543.4 1010.42 542.742C1010.32 542.085 1010.16 541.918 1010.04 541.847C1009.93 541.782 1009.74 541.721 1009.16 541.959C1008.58 542.199 1007.82 542.658 1006.7 543.333L1006.14 543.675L1006.03 543.738C1005.51 544.053 1005.07 544.325 1004.55 544.383C1004.03 544.442 1003.53 544.277 1002.96 544.086C1002.92 544.073 1002.88 544.06 1002.84 544.049L1002.22 543.841C1000.98 543.432 1000.13 543.155 999.51 543.051C998.897 542.948 998.724 543.051 998.634 543.137C998.532 543.234 998.414 543.433 998.458 544.097C998.503 544.761 998.696 545.671 998.976 546.991L999.119 547.661L999.142 547.777C999.275 548.399 999.385 548.912 999.288 549.423C999.19 549.937 998.897 550.368 998.547 550.885L998.482 550.98L998.104 551.537C997.362 552.636 996.854 553.39 996.57 553.98C996.29 554.561 996.318 554.8 996.384 554.951C996.447 555.094 996.588 555.265 997.186 555.425C997.798 555.59 998.676 555.689 999.965 555.831L1000.62 555.903C1000.66 555.908 1000.7 555.912 1000.74 555.916C1001.34 555.982 1001.86 556.038 1002.3 556.306C1002.75 556.57 1003.06 556.999 1003.42 557.507L1003.49 557.606L1003.88 558.157C1004.66 559.244 1005.2 559.989 1005.65 560.459C1006.1 560.93 1006.31 560.951 1006.42 560.938C1006.54 560.925 1006.73 560.858 1007.07 560.299ZM1008.36 561.077C1007.96 561.754 1007.43 562.346 1006.59 562.441C1005.76 562.535 1005.11 562.077 1004.56 561.508C1004.02 560.948 1003.42 560.112 1002.69 559.09L1002.26 558.486C1001.79 557.825 1001.67 557.686 1001.53 557.605C1001.4 557.527 1001.24 557.493 1000.45 557.406L999.735 557.327C998.527 557.194 997.531 557.084 996.793 556.886C996.027 556.679 995.337 556.326 994.999 555.56C994.666 554.801 994.859 554.047 995.207 553.324C995.545 552.621 996.117 551.775 996.816 550.743L997.229 550.133C997.679 549.469 997.77 549.309 997.803 549.139C997.835 548.966 997.809 548.773 997.638 547.976L997.484 547.245C997.219 546 997.004 544.986 996.95 544.2C996.895 543.4 996.989 542.616 997.589 542.043C998.201 541.46 998.985 541.428 999.761 541.56C1000.51 541.686 1001.47 542.001 1002.63 542.384L1003.32 542.612C1004.08 542.861 1004.23 542.897 1004.38 542.881C1004.52 542.864 1004.67 542.794 1005.35 542.382L1005.97 542.005C1007.02 541.372 1007.88 540.852 1008.59 540.561C1009.31 540.26 1010.08 540.115 1010.81 540.547C1011.52 540.971 1011.79 541.714 1011.92 542.505C1012.04 543.283 1012.06 544.321 1012.08 545.592L1012.09 546.341C1012.1 547.157 1012.12 547.35 1012.19 547.511C1012.26 547.669 1012.38 547.804 1012.97 548.351L1013.51 548.853C1014.42 549.704 1015.17 550.401 1015.65 551.009C1016.15 551.636 1016.51 552.328 1016.36 553.143C1016.2 553.965 1015.6 554.463 1014.9 554.836C1014.23 555.194 1013.28 555.524 1012.14 555.923L1012.07 555.945L1011.45 556.161C1010.71 556.421 1010.56 556.491 1010.45 556.597C1010.33 556.706 1010.25 556.868 1009.93 557.618L1009.65 558.302C1009.16 559.463 1008.77 560.411 1008.37 561.077" fill="white"/>
</g>
<g opacity="0.2" clip-path="url(#clip18_230_2630)">
<path fill-rule="evenodd" clip-rule="evenodd" d="M1022.91 515.224C1023.24 514.664 1023.6 513.818 1024.11 512.585L1024.37 511.96L1024.42 511.847C1024.66 511.272 1024.86 510.784 1025.24 510.427C1025.62 510.066 1026.11 509.895 1026.68 509.697L1026.79 509.658L1027.41 509.441C1028.64 509.015 1029.47 508.722 1030.03 508.425C1030.58 508.136 1030.68 507.937 1030.71 507.784C1030.74 507.622 1030.71 507.383 1030.31 506.878C1029.9 506.367 1029.24 505.746 1028.27 504.841L1027.77 504.382L1027.69 504.303C1027.23 503.878 1026.85 503.524 1026.64 503.044C1026.43 502.568 1026.42 502.044 1026.41 501.408L1026.41 501.29L1026.4 500.604C1026.38 499.255 1026.36 498.325 1026.26 497.667C1026.15 497.01 1025.99 496.843 1025.87 496.771C1025.77 496.707 1025.57 496.646 1025 496.883C1024.41 497.124 1023.65 497.583 1022.54 498.258L1021.97 498.6L1021.87 498.662C1021.35 498.978 1020.9 499.25 1020.39 499.308C1019.87 499.367 1019.37 499.202 1018.8 499.011C1018.76 498.998 1018.72 498.985 1018.68 498.974L1018.05 498.765C1016.81 498.357 1015.97 498.08 1015.35 497.976C1014.73 497.873 1014.56 497.976 1014.47 498.062C1014.37 498.159 1014.25 498.358 1014.29 499.021C1014.34 499.686 1014.53 500.596 1014.81 501.916L1014.95 502.586L1014.98 502.702C1015.11 503.324 1015.22 503.837 1015.12 504.348C1015.03 504.862 1014.73 505.293 1014.38 505.81L1014.32 505.905L1013.94 506.462C1013.2 507.561 1012.69 508.315 1012.41 508.905C1012.13 509.486 1012.15 509.725 1012.22 509.876C1012.28 510.018 1012.42 510.19 1013.02 510.35C1013.63 510.515 1014.51 510.613 1015.8 510.756L1016.45 510.828C1016.49 510.833 1016.53 510.837 1016.57 510.841C1017.17 510.907 1017.69 510.963 1018.14 511.231C1018.59 511.495 1018.89 511.924 1019.25 512.432L1019.33 512.531L1019.72 513.082C1020.5 514.169 1021.03 514.914 1021.49 515.384C1021.94 515.855 1022.14 515.876 1022.26 515.863C1022.37 515.85 1022.57 515.783 1022.91 515.224ZM1024.2 516.002C1023.8 516.679 1023.26 517.271 1022.43 517.366C1021.59 517.46 1020.95 517.002 1020.4 516.433C1019.86 515.873 1019.26 515.037 1018.53 514.014L1018.1 513.411C1017.62 512.75 1017.5 512.611 1017.37 512.53C1017.24 512.452 1017.07 512.418 1016.29 512.331L1015.57 512.252C1014.36 512.119 1013.37 512.009 1012.63 511.811C1011.86 511.604 1011.17 511.251 1010.84 510.485C1010.5 509.726 1010.69 508.972 1011.04 508.249C1011.38 507.546 1011.95 506.7 1012.65 505.668L1013.07 505.058C1013.51 504.394 1013.61 504.233 1013.64 504.064C1013.67 503.891 1013.64 503.698 1013.47 502.901L1013.32 502.17C1013.05 500.925 1012.84 499.911 1012.79 499.125C1012.73 498.325 1012.83 497.541 1013.42 496.968C1014.04 496.385 1014.82 496.353 1015.6 496.485C1016.35 496.61 1017.3 496.925 1018.46 497.309L1019.15 497.537C1019.91 497.786 1020.07 497.822 1020.22 497.805C1020.36 497.789 1020.51 497.719 1021.19 497.307L1021.81 496.93C1022.86 496.297 1023.72 495.777 1024.42 495.486C1025.15 495.185 1025.92 495.04 1026.65 495.471C1027.36 495.896 1027.63 496.639 1027.75 497.43C1027.87 498.208 1027.89 499.246 1027.91 500.517L1027.92 501.265C1027.94 502.082 1027.95 502.275 1028.03 502.436C1028.09 502.594 1028.22 502.729 1028.81 503.276L1029.34 503.778C1030.26 504.629 1031 505.326 1031.49 505.934C1031.99 506.561 1032.35 507.253 1032.19 508.067C1032.03 508.89 1031.44 509.388 1030.74 509.761C1030.06 510.119 1029.12 510.449 1027.97 510.848L1027.91 510.87L1027.29 511.086C1026.54 511.346 1026.39 511.416 1026.28 511.522C1026.17 511.631 1026.08 511.793 1025.77 512.543L1025.48 513.227C1025 514.388 1024.6 515.336 1024.2 516.002" fill="white"/>
</g>
<defs>
<clipPath id="clip0_230_2630">
<rect width="24" height="24" fill="white" transform="translate(302.996 405.358) rotate(-25.5812)"/>
</clipPath>
<clipPath id="clip1_230_2630">
<rect width="14.7035" height="14.7035" fill="white" transform="translate(340 435.363) rotate(-25.5812)"/>
</clipPath>
<clipPath id="clip2_230_2630">
<rect width="14.7035" height="14.7035" fill="white" transform="translate(274 415.349) rotate(-25.5812)"/>
</clipPath>
<clipPath id="clip3_230_2630">
<rect width="14.7035" height="14.7035" fill="white" transform="translate(403 440.349) rotate(-25.5812)"/>
</clipPath>
<clipPath id="clip4_230_2630">
<rect width="11.0511" height="11.0511" fill="white" transform="translate(375 428.349) rotate(-25.5812)"/>
</clipPath>
<clipPath id="clip5_230_2630">
<rect width="11.0511" height="11.0511" fill="white" transform="translate(378 410.772) rotate(-25.5812)"/>
</clipPath>
<clipPath id="clip6_230_2630">
<rect width="14.7035" height="14.7035" fill="white" transform="translate(334 411.349) rotate(-25.5812)"/>
</clipPath>
<clipPath id="clip7_230_2630">
<rect width="24.1968" height="24.1968" fill="white" transform="translate(380.902 450.786) rotate(-25.5812)"/>
</clipPath>
<clipPath id="clip8_230_2630">
<rect width="24.1968" height="24.1968" fill="white" transform="translate(428 442.448) rotate(-25.5812)"/>
</clipPath>
<clipPath id="clip9_230_2630">
<rect width="24.1968" height="24.1968" fill="white" transform="translate(427.805 490.223) rotate(-25.5812)"/>
</clipPath>
<clipPath id="clip10_230_2630">
<rect width="14.7035" height="14.7035" fill="white" transform="translate(1099.58 597.856) rotate(173.542)"/>
</clipPath>
<clipPath id="clip11_230_2630">
<rect width="14.7035" height="14.7035" fill="white" transform="translate(1155.38 638.387) rotate(173.542)"/>
</clipPath>
<clipPath id="clip12_230_2630">
<rect width="14.7035" height="14.7035" fill="white" transform="translate(1041.69 572.505) rotate(173.542)"/>
</clipPath>
<clipPath id="clip13_230_2630">
<rect width="11.0511" height="11.0511" fill="white" transform="translate(1064.21 593.016) rotate(173.542)"/>
</clipPath>
<clipPath id="clip14_230_2630">
<rect width="11.0511" height="11.0511" fill="white" transform="translate(1055.62 608.641) rotate(173.542)"/>
</clipPath>
<clipPath id="clip15_230_2630">
<rect width="14.7035" height="14.7035" fill="white" transform="translate(1097.38 622.51) rotate(173.542)"/>
</clipPath>
<clipPath id="clip16_230_2630">
<rect width="24.1968" height="24.1968" fill="white" transform="translate(1065.99 569.884) rotate(173.542)"/>
</clipPath>
<clipPath id="clip17_230_2630">
<rect width="24.1968" height="24.1968" fill="white" transform="translate(1018.76 562.332) rotate(173.542)"/>
</clipPath>
<clipPath id="clip18_230_2630">
<rect width="24.1968" height="24.1968" fill="white" transform="translate(1034.59 517.257) rotate(173.542)"/>
</clipPath>
</defs>
</svg>
