<svg width="12" height="20" viewBox="0 0 12 20" fill="none" xmlns="http://www.w3.org/2000/svg">
<g opacity="0.5">
<path fill-rule="evenodd" clip-rule="evenodd" d="M0.423528 10.6872C0.151943 10.4156 -0.000624657 10.0472 -0.000624657 9.66303C-0.000624657 9.27889 0.151943 8.91048 0.423528 8.63882L8.61868 0.443659C8.75232 0.305296 8.91217 0.194931 9.08892 0.119007C9.26566 0.0430832 9.45576 0.00312233 9.64811 0.00144958C9.84047 -0.000221252 10.0312 0.0364323 10.2093 0.109274C10.3873 0.182114 10.549 0.289684 10.6851 0.425703C10.8211 0.561724 10.9287 0.723469 11.0015 0.901506C11.0743 1.07954 11.111 1.27031 11.1093 1.46266C11.1076 1.65501 11.0677 1.84511 10.9918 2.02185C10.9158 2.1986 10.8055 2.35845 10.6671 2.49208L3.49617 9.66303L10.6671 16.834C10.931 17.1072 11.077 17.4731 11.0737 17.853C11.0704 18.2328 10.9181 18.5962 10.6495 18.8648C10.3809 19.1334 10.0175 19.2857 9.63768 19.289C9.25785 19.2923 8.89191 19.1463 8.61868 18.8824L0.423528 10.6872Z" fill="#C7C7C7"/>
</g>
</svg>
