<svg width="12" height="20" viewBox="0 0 12 20" fill="none" xmlns="http://www.w3.org/2000/svg">
<g opacity="0.5">
<path fill-rule="evenodd" clip-rule="evenodd" d="M10.6858 8.60182C10.9574 8.87348 11.11 9.24189 11.11 9.62603C11.11 10.0102 10.9574 10.3786 10.6858 10.6502L2.49069 18.8454C2.35706 18.9838 2.1972 19.0941 2.02046 19.1701C1.84371 19.246 1.65362 19.2859 1.46126 19.2876C1.26891 19.2893 1.07815 19.2526 0.900112 19.1798C0.722075 19.1069 0.560327 18.9994 0.424307 18.8634C0.288287 18.7273 0.180718 18.5656 0.107878 18.3876C0.0350368 18.2095 -0.00161681 18.0188 5.46977e-05 17.8264C0.0017262 17.634 0.0416898 17.444 0.117613 17.2672C0.193537 17.0905 0.3039 16.9306 0.442263 16.797L7.61321 9.62603L0.442263 2.45509C0.178375 2.18186 0.0323569 1.81593 0.0356576 1.43609C0.0389583 1.05625 0.191314 0.692903 0.45991 0.424307C0.728506 0.155711 1.09185 0.00335545 1.47169 5.47638e-05C1.85153 -0.00324593 2.21747 0.142772 2.49069 0.40666L10.6858 8.60182Z" fill="#C7C7C7"/>
</g>
</svg>
